<svg width="180" height="149" viewBox="0 0 180 149" fill="none" xmlns="http://www.w3.org/2000/svg">
<g clip-path="url(#clip0_65_640)">
<path d="M99.3104 0H93.1035V6.2069H99.3104V0Z" fill="black"/>
<path d="M105.517 0H99.3105V6.2069H105.517V0Z" fill="black"/>
<path d="M111.724 0H105.517V6.2069H111.724V0Z" fill="black"/>
<path d="M117.931 0H111.724V6.2069H117.931V0Z" fill="black"/>
<path d="M68.2757 6.20703H62.0688V12.4139H68.2757V6.20703Z" fill="black"/>
<path d="M74.4828 6.20703H68.2759V12.4139H74.4828V6.20703Z" fill="black"/>
<path d="M80.6898 6.20703H74.4829V12.4139H80.6898V6.20703Z" fill="black"/>
<path d="M86.8963 6.20703H80.6895V12.4139H86.8963V6.20703Z" fill="black"/>
<path d="M93.1034 6.20703H86.8965V12.4139H93.1034V6.20703Z" fill="black"/>
<path d="M99.3104 6.20703H93.1035V12.4139H99.3104V6.20703Z" fill="#AC3232"/>
<path d="M105.517 6.20703H99.3105V12.4139H105.517V6.20703Z" fill="#AC3232"/>
<path d="M111.724 6.20703H105.517V12.4139H111.724V6.20703Z" fill="#AC3232"/>
<path d="M117.931 6.20703H111.724V12.4139H117.931V6.20703Z" fill="#AC3232"/>
<path d="M124.138 6.20703H117.931V12.4139H124.138V6.20703Z" fill="black"/>
<path d="M130.345 6.20703H124.138V12.4139H130.345V6.20703Z" fill="black"/>
<path d="M55.8622 12.4136H49.6553V18.6205H55.8622V12.4136Z" fill="black"/>
<path d="M62.0692 12.4136H55.8623V18.6205H62.0692V12.4136Z" fill="black"/>
<path d="M68.2757 12.4136H62.0688V18.6205H68.2757V12.4136Z" fill="#AC3232"/>
<path d="M74.4828 12.4136H68.2759V18.6205H74.4828V12.4136Z" fill="#AC3232"/>
<path d="M80.6898 12.4136H74.4829V18.6205H80.6898V12.4136Z" fill="#AC3232"/>
<path d="M86.8963 12.4136H80.6895V18.6205H86.8963V12.4136Z" fill="#AC3232"/>
<path d="M93.1034 12.4136H86.8965V18.6205H93.1034V12.4136Z" fill="#AC3232"/>
<path d="M99.3104 12.4136H93.1035V18.6205H99.3104V12.4136Z" fill="#AC3232"/>
<path d="M105.517 12.4136H99.3105V18.6205H105.517V12.4136Z" fill="#AC3232"/>
<path d="M111.724 12.4136H105.517V18.6205H111.724V12.4136Z" fill="#AC3232"/>
<path d="M117.931 12.4136H111.724V18.6205H117.931V12.4136Z" fill="#AC3232"/>
<path d="M124.138 12.4136H117.931V18.6205H124.138V12.4136Z" fill="#AC3232"/>
<path d="M130.345 12.4136H124.138V18.6205H130.345V12.4136Z" fill="#AC3232"/>
<path d="M136.552 12.4136H130.345V18.6205H136.552V12.4136Z" fill="black"/>
<path d="M43.4481 18.6206H37.2412V24.8275H43.4481V18.6206Z" fill="black"/>
<path d="M49.6551 18.6206H43.4482V24.8275H49.6551V18.6206Z" fill="black"/>
<path d="M55.8622 18.6206H49.6553V24.8275H55.8622V18.6206Z" fill="#AC3232"/>
<path d="M62.0692 18.6206H55.8623V24.8275H62.0692V18.6206Z" fill="#AC3232"/>
<path d="M68.2757 18.6206H62.0688V24.8275H68.2757V18.6206Z" fill="#AC3232"/>
<path d="M74.4828 18.6206H68.2759V24.8275H74.4828V18.6206Z" fill="#AC3232"/>
<path d="M80.6898 18.6206H74.4829V24.8275H80.6898V18.6206Z" fill="#AC3232"/>
<path d="M86.8963 18.6206H80.6895V24.8275H86.8963V18.6206Z" fill="#AC3232"/>
<path d="M93.1034 18.6206H86.8965V24.8275H93.1034V18.6206Z" fill="#AC3232"/>
<path d="M99.3104 18.6206H93.1035V24.8275H99.3104V18.6206Z" fill="#AC3232"/>
<path d="M105.517 18.6206H99.3105V24.8275H105.517V18.6206Z" fill="#AC3232"/>
<path d="M111.724 18.6206H105.517V24.8275H111.724V18.6206Z" fill="#AC3232"/>
<path d="M117.931 18.6206H111.724V24.8275H117.931V18.6206Z" fill="#AC3232"/>
<path d="M124.138 18.6206H117.931V24.8275H124.138V18.6206Z" fill="#AC3232"/>
<path d="M130.345 18.6206H124.138V24.8275H130.345V18.6206Z" fill="#AC3232"/>
<path d="M136.552 18.6206H130.345V24.8275H136.552V18.6206Z" fill="#AC3232"/>
<path d="M142.759 18.6206H136.552V24.8275H142.759V18.6206Z" fill="black"/>
<path d="M148.966 18.6206H142.759V24.8275H148.966V18.6206Z" fill="black"/>
<path d="M155.172 18.6206H148.965V24.8275H155.172V18.6206Z" fill="black"/>
<path d="M161.379 18.6206H155.172V24.8275H161.379V18.6206Z" fill="black"/>
<path d="M167.586 18.6206H161.379V24.8275H167.586V18.6206Z" fill="black"/>
<path d="M37.2416 24.8276H31.0347V31.0345H37.2416V24.8276Z" fill="black"/>
<path d="M43.4481 24.8276H37.2412V31.0345H43.4481V24.8276Z" fill="#AC3232"/>
<path d="M49.6551 24.8276H43.4482V31.0345H49.6551V24.8276Z" fill="#AC3232"/>
<path d="M55.8622 24.8276H49.6553V31.0345H55.8622V24.8276Z" fill="#AC3232"/>
<path d="M62.0692 24.8276H55.8623V31.0345H62.0692V24.8276Z" fill="#AC3232"/>
<path d="M68.2757 24.8276H62.0688V31.0345H68.2757V24.8276Z" fill="#AC3232"/>
<path d="M74.4828 24.8276H68.2759V31.0345H74.4828V24.8276Z" fill="#AC3232"/>
<path d="M80.6898 24.8276H74.4829V31.0345H80.6898V24.8276Z" fill="#AC3232"/>
<path d="M86.8963 24.8276H80.6895V31.0345H86.8963V24.8276Z" fill="#AC3232"/>
<path d="M93.1034 24.8276H86.8965V31.0345H93.1034V24.8276Z" fill="#AC3232"/>
<path d="M99.3104 24.8276H93.1035V31.0345H99.3104V24.8276Z" fill="#AC3232"/>
<path d="M105.517 24.8276H99.3105V31.0345H105.517V24.8276Z" fill="#AC3232"/>
<path d="M111.724 24.8276H105.517V31.0345H111.724V24.8276Z" fill="#861313"/>
<path d="M117.931 24.8276H111.724V31.0345H117.931V24.8276Z" fill="#861313"/>
<path d="M124.138 24.8276H117.931V31.0345H124.138V24.8276Z" fill="#861313"/>
<path d="M130.345 24.8276H124.138V31.0345H130.345V24.8276Z" fill="#AC3232"/>
<path d="M136.552 24.8276H130.345V31.0345H136.552V24.8276Z" fill="#AC3232"/>
<path d="M142.759 24.8276H136.552V31.0345H142.759V24.8276Z" fill="#AC3232"/>
<path d="M148.966 24.8276H142.759V31.0345H148.966V24.8276Z" fill="#AC3232"/>
<path d="M155.172 24.8276H148.965V31.0345H155.172V24.8276Z" fill="#AC3232"/>
<path d="M161.379 24.8276H155.172V31.0345H161.379V24.8276Z" fill="#AC3232"/>
<path d="M167.586 24.8276H161.379V31.0345H167.586V24.8276Z" fill="#AC3232"/>
<path d="M173.793 24.8276H167.586V31.0345H173.793V24.8276Z" fill="black"/>
<path d="M180 24.8276H173.793V31.0345H180V24.8276Z" fill="black"/>
<path d="M31.0345 31.0344H24.8276V37.2413H31.0345V31.0344Z" fill="black"/>
<path d="M37.2416 31.0344H31.0347V37.2413H37.2416V31.0344Z" fill="#AC3232"/>
<path d="M43.4481 31.0344H37.2412V37.2413H43.4481V31.0344Z" fill="#C75454"/>
<path d="M49.6551 31.0344H43.4482V37.2413H49.6551V31.0344Z" fill="#C75454"/>
<path d="M55.8622 31.0344H49.6553V37.2413H55.8622V31.0344Z" fill="#C75454"/>
<path d="M62.0692 31.0344H55.8623V37.2413H62.0692V31.0344Z" fill="#C75454"/>
<path d="M68.2757 31.0344H62.0688V37.2413H68.2757V31.0344Z" fill="#C75454"/>
<path d="M74.4828 31.0344H68.2759V37.2413H74.4828V31.0344Z" fill="#C75454"/>
<path d="M80.6898 31.0344H74.4829V37.2413H80.6898V31.0344Z" fill="#AC3232"/>
<path d="M86.8963 31.0344H80.6895V37.2413H86.8963V31.0344Z" fill="#AC3232"/>
<path d="M93.1034 31.0344H86.8965V37.2413H93.1034V31.0344Z" fill="#AC3232"/>
<path d="M99.3104 31.0344H93.1035V37.2413H99.3104V31.0344Z" fill="#861313"/>
<path d="M105.517 31.0344H99.3105V37.2413H105.517V31.0344Z" fill="#861313"/>
<path d="M111.724 31.0344H105.517V37.2413H111.724V31.0344Z" fill="#AC3232"/>
<path d="M117.931 31.0344H111.724V37.2413H117.931V31.0344Z" fill="#AC3232"/>
<path d="M124.138 31.0344H117.931V37.2413H124.138V31.0344Z" fill="#AC3232"/>
<path d="M130.345 31.0344H124.138V37.2413H130.345V31.0344Z" fill="#AC3232"/>
<path d="M136.552 31.0344H130.345V37.2413H136.552V31.0344Z" fill="#AC3232"/>
<path d="M142.759 31.0344H136.552V37.2413H142.759V31.0344Z" fill="#AC3232"/>
<path d="M148.966 31.0344H142.759V37.2413H148.966V31.0344Z" fill="#AC3232"/>
<path d="M155.172 31.0344H148.965V37.2413H155.172V31.0344Z" fill="#AC3232"/>
<path d="M161.379 31.0344H155.172V37.2413H161.379V31.0344Z" fill="#AC3232"/>
<path d="M167.586 31.0344H161.379V37.2413H167.586V31.0344Z" fill="#AC3232"/>
<path d="M173.793 31.0344H167.586V37.2413H173.793V31.0344Z" fill="#AC3232"/>
<path d="M180 31.0344H173.793V37.2413H180V31.0344Z" fill="black"/>
<path d="M24.8275 37.2415H18.6206V43.4484H24.8275V37.2415Z" fill="black"/>
<path d="M31.0345 37.2415H24.8276V43.4484H31.0345V37.2415Z" fill="#C75454"/>
<path d="M37.2416 37.2415H31.0347V43.4484H37.2416V37.2415Z" fill="#C75454"/>
<path d="M43.4481 37.2415H37.2412V43.4484H43.4481V37.2415Z" fill="#C75454"/>
<path d="M49.6551 37.2415H43.4482V43.4484H49.6551V37.2415Z" fill="#C75454"/>
<path d="M55.8622 37.2415H49.6553V43.4484H55.8622V37.2415Z" fill="#C75454"/>
<path d="M62.0692 37.2415H55.8623V43.4484H62.0692V37.2415Z" fill="#C75454"/>
<path d="M68.2757 37.2415H62.0688V43.4484H68.2757V37.2415Z" fill="#C75454"/>
<path d="M74.4828 37.2415H68.2759V43.4484H74.4828V37.2415Z" fill="#C75454"/>
<path d="M80.6898 37.2415H74.4829V43.4484H80.6898V37.2415Z" fill="#C75454"/>
<path d="M86.8963 37.2415H80.6895V43.4484H86.8963V37.2415Z" fill="#861313"/>
<path d="M93.1034 37.2415H86.8965V43.4484H93.1034V37.2415Z" fill="#861313"/>
<path d="M99.3104 37.2415H93.1035V43.4484H99.3104V37.2415Z" fill="#AC3232"/>
<path d="M105.517 37.2415H99.3105V43.4484H105.517V37.2415Z" fill="#AC3232"/>
<path d="M111.724 37.2415H105.517V43.4484H111.724V37.2415Z" fill="#AC3232"/>
<path d="M117.931 37.2415H111.724V43.4484H117.931V37.2415Z" fill="#AC3232"/>
<path d="M124.138 37.2415H117.931V43.4484H124.138V37.2415Z" fill="#AC3232"/>
<path d="M130.345 37.2415H124.138V43.4484H130.345V37.2415Z" fill="#AC3232"/>
<path d="M136.552 37.2415H130.345V43.4484H136.552V37.2415Z" fill="#AC3232"/>
<path d="M142.759 37.2415H136.552V43.4484H142.759V37.2415Z" fill="#AC3232"/>
<path d="M148.966 37.2415H142.759V43.4484H148.966V37.2415Z" fill="#AC3232"/>
<path d="M155.172 37.2415H148.965V43.4484H155.172V37.2415Z" fill="#AC3232"/>
<path d="M161.379 37.2415H155.172V43.4484H161.379V37.2415Z" fill="#AC3232"/>
<path d="M167.586 37.2415H161.379V43.4484H167.586V37.2415Z" fill="#AC3232"/>
<path d="M173.793 37.2415H167.586V43.4484H173.793V37.2415Z" fill="#AC3232"/>
<path d="M180 37.2415H173.793V43.4484H180V37.2415Z" fill="black"/>
<path d="M18.6205 43.4482H12.4136V49.6551H18.6205V43.4482Z" fill="black"/>
<path d="M24.8275 43.4482H18.6206V49.6551H24.8275V43.4482Z" fill="#C75454"/>
<path d="M31.0345 43.4482H24.8276V49.6551H31.0345V43.4482Z" fill="#C75454"/>
<path d="M37.2416 43.4482H31.0347V49.6551H37.2416V43.4482Z" fill="#C75454"/>
<path d="M43.4481 43.4482H37.2412V49.6551H43.4481V43.4482Z" fill="#C75454"/>
<path d="M49.6551 43.4482H43.4482V49.6551H49.6551V43.4482Z" fill="#C75454"/>
<path d="M55.8622 43.4482H49.6553V49.6551H55.8622V43.4482Z" fill="#C75454"/>
<path d="M62.0692 43.4482H55.8623V49.6551H62.0692V43.4482Z" fill="#C75454"/>
<path d="M68.2757 43.4482H62.0688V49.6551H68.2757V43.4482Z" fill="#C75454"/>
<path d="M74.4828 43.4482H68.2759V49.6551H74.4828V43.4482Z" fill="#C75454"/>
<path d="M80.6898 43.4482H74.4829V49.6551H80.6898V43.4482Z" fill="#861313"/>
<path d="M86.8963 43.4482H80.6895V49.6551H86.8963V43.4482Z" fill="#C75454"/>
<path d="M93.1034 43.4482H86.8965V49.6551H93.1034V43.4482Z" fill="#AC3232"/>
<path d="M99.3104 43.4482H93.1035V49.6551H99.3104V43.4482Z" fill="#AC3232"/>
<path d="M105.517 43.4482H99.3105V49.6551H105.517V43.4482Z" fill="#AC3232"/>
<path d="M111.724 43.4482H105.517V49.6551H111.724V43.4482Z" fill="#AC3232"/>
<path d="M117.931 43.4482H111.724V49.6551H117.931V43.4482Z" fill="#AC3232"/>
<path d="M124.138 43.4482H117.931V49.6551H124.138V43.4482Z" fill="#AC3232"/>
<path d="M130.345 43.4482H124.138V49.6551H130.345V43.4482Z" fill="#AC3232"/>
<path d="M136.552 43.4482H130.345V49.6551H136.552V43.4482Z" fill="#AC3232"/>
<path d="M142.759 43.4482H136.552V49.6551H142.759V43.4482Z" fill="#AC3232"/>
<path d="M148.966 43.4482H142.759V49.6551H148.966V43.4482Z" fill="#AC3232"/>
<path d="M155.172 43.4482H148.965V49.6551H155.172V43.4482Z" fill="#AC3232"/>
<path d="M161.379 43.4482H155.172V49.6551H161.379V43.4482Z" fill="#AC3232"/>
<path d="M167.586 43.4482H161.379V49.6551H167.586V43.4482Z" fill="#AC3232"/>
<path d="M173.793 43.4482H167.586V49.6551H173.793V43.4482Z" fill="#AC3232"/>
<path d="M180 43.4482H173.793V49.6551H180V43.4482Z" fill="black"/>
<path d="M18.6205 49.6553H12.4136V55.8622H18.6205V49.6553Z" fill="black"/>
<path d="M24.8275 49.6553H18.6206V55.8622H24.8275V49.6553Z" fill="#C75454"/>
<path d="M31.0345 49.6553H24.8276V55.8622H31.0345V49.6553Z" fill="#C75454"/>
<path d="M37.2416 49.6553H31.0347V55.8622H37.2416V49.6553Z" fill="#C75454"/>
<path d="M43.4481 49.6553H37.2412V55.8622H43.4481V49.6553Z" fill="#EE7580"/>
<path d="M49.6551 49.6553H43.4482V55.8622H49.6551V49.6553Z" fill="#C75454"/>
<path d="M55.8622 49.6553H49.6553V55.8622H55.8622V49.6553Z" fill="#C75454"/>
<path d="M62.0692 49.6553H55.8623V55.8622H62.0692V49.6553Z" fill="#C75454"/>
<path d="M68.2757 49.6553H62.0688V55.8622H68.2757V49.6553Z" fill="#C75454"/>
<path d="M74.4828 49.6553H68.2759V55.8622H74.4828V49.6553Z" fill="#861313"/>
<path d="M80.6898 49.6553H74.4829V55.8622H80.6898V49.6553Z" fill="#C75454"/>
<path d="M86.8963 49.6553H80.6895V55.8622H86.8963V49.6553Z" fill="#C75454"/>
<path d="M93.1034 49.6553H86.8965V55.8622H93.1034V49.6553Z" fill="#C75454"/>
<path d="M99.3104 49.6553H93.1035V55.8622H99.3104V49.6553Z" fill="#C75454"/>
<path d="M105.517 49.6553H99.3105V55.8622H105.517V49.6553Z" fill="#C75454"/>
<path d="M111.724 49.6553H105.517V55.8622H111.724V49.6553Z" fill="#C75454"/>
<path d="M117.931 49.6553H111.724V55.8622H117.931V49.6553Z" fill="#C75454"/>
<path d="M124.138 49.6553H117.931V55.8622H124.138V49.6553Z" fill="#AC3232"/>
<path d="M130.345 49.6553H124.138V55.8622H130.345V49.6553Z" fill="#AC3232"/>
<path d="M136.552 49.6553H130.345V55.8622H136.552V49.6553Z" fill="#AC3232"/>
<path d="M142.759 49.6553H136.552V55.8622H142.759V49.6553Z" fill="#AC3232"/>
<path d="M148.966 49.6553H142.759V55.8622H148.966V49.6553Z" fill="#AC3232"/>
<path d="M155.172 49.6553H148.965V55.8622H155.172V49.6553Z" fill="#AC3232"/>
<path d="M161.379 49.6553H155.172V55.8622H161.379V49.6553Z" fill="#AC3232"/>
<path d="M167.586 49.6553H161.379V55.8622H167.586V49.6553Z" fill="#AC3232"/>
<path d="M173.793 49.6553H167.586V55.8622H173.793V49.6553Z" fill="black"/>
<path d="M12.4139 55.8621H6.20703V62.069H12.4139V55.8621Z" fill="black"/>
<path d="M18.6205 55.8621H12.4136V62.069H18.6205V55.8621Z" fill="#C75454"/>
<path d="M24.8275 55.8621H18.6206V62.069H24.8275V55.8621Z" fill="#C75454"/>
<path d="M31.0345 55.8621H24.8276V62.069H31.0345V55.8621Z" fill="#C75454"/>
<path d="M37.2416 55.8621H31.0347V62.069H37.2416V55.8621Z" fill="#EE7580"/>
<path d="M43.4481 55.8621H37.2412V62.069H43.4481V55.8621Z" fill="#C75454"/>
<path d="M49.6551 55.8621H43.4482V62.069H49.6551V55.8621Z" fill="#C75454"/>
<path d="M55.8622 55.8621H49.6553V62.069H55.8622V55.8621Z" fill="#C75454"/>
<path d="M62.0692 55.8621H55.8623V62.069H62.0692V55.8621Z" fill="#C75454"/>
<path d="M68.2757 55.8621H62.0688V62.069H68.2757V55.8621Z" fill="#861313"/>
<path d="M74.4828 55.8621H68.2759V62.069H74.4828V55.8621Z" fill="#C75454"/>
<path d="M80.6898 55.8621H74.4829V62.069H80.6898V55.8621Z" fill="#C75454"/>
<path d="M86.8963 55.8621H80.6895V62.069H86.8963V55.8621Z" fill="#C75454"/>
<path d="M93.1034 55.8621H86.8965V62.069H93.1034V55.8621Z" fill="#C75454"/>
<path d="M99.3104 55.8621H93.1035V62.069H99.3104V55.8621Z" fill="#C75454"/>
<path d="M105.517 55.8621H99.3105V62.069H105.517V55.8621Z" fill="#C75454"/>
<path d="M111.724 55.8621H105.517V62.069H111.724V55.8621Z" fill="#C75454"/>
<path d="M117.931 55.8621H111.724V62.069H117.931V55.8621Z" fill="#C75454"/>
<path d="M124.138 55.8621H117.931V62.069H124.138V55.8621Z" fill="#C75454"/>
<path d="M130.345 55.8621H124.138V62.069H130.345V55.8621Z" fill="#AC3232"/>
<path d="M136.552 55.8621H130.345V62.069H136.552V55.8621Z" fill="#AC3232"/>
<path d="M142.759 55.8621H136.552V62.069H142.759V55.8621Z" fill="#AC3232"/>
<path d="M148.966 55.8621H142.759V62.069H148.966V55.8621Z" fill="#AC3232"/>
<path d="M155.172 55.8621H148.965V62.069H155.172V55.8621Z" fill="#AC3232"/>
<path d="M161.379 55.8621H155.172V62.069H161.379V55.8621Z" fill="#AC3232"/>
<path d="M167.586 55.8621H161.379V62.069H167.586V55.8621Z" fill="#AC3232"/>
<path d="M173.793 55.8621H167.586V62.069H173.793V55.8621Z" fill="black"/>
<path d="M12.4139 62.0688H6.20703V68.2757H12.4139V62.0688Z" fill="black"/>
<path d="M18.6205 62.0688H12.4136V68.2757H18.6205V62.0688Z" fill="#C75454"/>
<path d="M24.8275 62.0688H18.6206V68.2757H24.8275V62.0688Z" fill="#C75454"/>
<path d="M31.0345 62.0688H24.8276V68.2757H31.0345V62.0688Z" fill="#EE7580"/>
<path d="M37.2416 62.0688H31.0347V68.2757H37.2416V62.0688Z" fill="#EE7580"/>
<path d="M43.4481 62.0688H37.2412V68.2757H43.4481V62.0688Z" fill="#C75454"/>
<path d="M49.6551 62.0688H43.4482V68.2757H49.6551V62.0688Z" fill="#C75454"/>
<path d="M55.8622 62.0688H49.6553V68.2757H55.8622V62.0688Z" fill="#C75454"/>
<path d="M62.0692 62.0688H55.8623V68.2757H62.0692V62.0688Z" fill="#861313"/>
<path d="M68.2757 62.0688H62.0688V68.2757H68.2757V62.0688Z" fill="#C75454"/>
<path d="M74.4828 62.0688H68.2759V68.2757H74.4828V62.0688Z" fill="#C75454"/>
<path d="M80.6898 62.0688H74.4829V68.2757H80.6898V62.0688Z" fill="#C75454"/>
<path d="M86.8963 62.0688H80.6895V68.2757H86.8963V62.0688Z" fill="#C75454"/>
<path d="M93.1034 62.0688H86.8965V68.2757H93.1034V62.0688Z" fill="#C75454"/>
<path d="M99.3104 62.0688H93.1035V68.2757H99.3104V62.0688Z" fill="#C75454"/>
<path d="M105.517 62.0688H99.3105V68.2757H105.517V62.0688Z" fill="#C75454"/>
<path d="M111.724 62.0688H105.517V68.2757H111.724V62.0688Z" fill="#C75454"/>
<path d="M117.931 62.0688H111.724V68.2757H117.931V62.0688Z" fill="#C75454"/>
<path d="M124.138 62.0688H117.931V68.2757H124.138V62.0688Z" fill="#C75454"/>
<path d="M130.345 62.0688H124.138V68.2757H130.345V62.0688Z" fill="#C75454"/>
<path d="M136.552 62.0688H130.345V68.2757H136.552V62.0688Z" fill="#AC3232"/>
<path d="M142.759 62.0688H136.552V68.2757H142.759V62.0688Z" fill="#AC3232"/>
<path d="M148.966 62.0688H142.759V68.2757H148.966V62.0688Z" fill="#AC3232"/>
<path d="M155.172 62.0688H148.965V68.2757H155.172V62.0688Z" fill="#AC3232"/>
<path d="M161.379 62.0688H155.172V68.2757H161.379V62.0688Z" fill="#AC3232"/>
<path d="M167.586 62.0688H161.379V68.2757H167.586V62.0688Z" fill="black"/>
<path d="M173.793 62.0688H167.586V68.2757H173.793V62.0688Z" fill="black"/>
<path d="M12.4139 68.2759H6.20703V74.4828H12.4139V68.2759Z" fill="black"/>
<path d="M18.6205 68.2759H12.4136V74.4828H18.6205V68.2759Z" fill="#C75454"/>
<path d="M24.8275 68.2759H18.6206V74.4828H24.8275V68.2759Z" fill="#C75454"/>
<path d="M31.0345 68.2759H24.8276V74.4828H31.0345V68.2759Z" fill="#EE7580"/>
<path d="M37.2416 68.2759H31.0347V74.4828H37.2416V68.2759Z" fill="#C75454"/>
<path d="M43.4481 68.2759H37.2412V74.4828H43.4481V68.2759Z" fill="#C75454"/>
<path d="M49.6551 68.2759H43.4482V74.4828H49.6551V68.2759Z" fill="#C75454"/>
<path d="M55.8622 68.2759H49.6553V74.4828H55.8622V68.2759Z" fill="#C75454"/>
<path d="M62.0692 68.2759H55.8623V74.4828H62.0692V68.2759Z" fill="#861313"/>
<path d="M68.2757 68.2759H62.0688V74.4828H68.2757V68.2759Z" fill="#C75454"/>
<path d="M74.4828 68.2759H68.2759V74.4828H74.4828V68.2759Z" fill="#C75454"/>
<path d="M80.6898 68.2759H74.4829V74.4828H80.6898V68.2759Z" fill="#C75454"/>
<path d="M86.8963 68.2759H80.6895V74.4828H86.8963V68.2759Z" fill="#C75454"/>
<path d="M93.1034 68.2759H86.8965V74.4828H93.1034V68.2759Z" fill="#C75454"/>
<path d="M99.3104 68.2759H93.1035V74.4828H99.3104V68.2759Z" fill="#C75454"/>
<path d="M105.517 68.2759H99.3105V74.4828H105.517V68.2759Z" fill="#C75454"/>
<path d="M111.724 68.2759H105.517V74.4828H111.724V68.2759Z" fill="#C75454"/>
<path d="M117.931 68.2759H111.724V74.4828H117.931V68.2759Z" fill="#C75454"/>
<path d="M124.138 68.2759H117.931V74.4828H124.138V68.2759Z" fill="#C75454"/>
<path d="M130.345 68.2759H124.138V74.4828H130.345V68.2759Z" fill="#C75454"/>
<path d="M136.552 68.2759H130.345V74.4828H136.552V68.2759Z" fill="#AC3232"/>
<path d="M142.759 68.2759H136.552V74.4828H142.759V68.2759Z" fill="#AC3232"/>
<path d="M148.966 68.2759H142.759V74.4828H148.966V68.2759Z" fill="#AC3232"/>
<path d="M155.172 68.2759H148.965V74.4828H155.172V68.2759Z" fill="#AC3232"/>
<path d="M161.379 68.2759H155.172V74.4828H161.379V68.2759Z" fill="black"/>
<path d="M167.586 68.2759H161.379V74.4828H167.586V68.2759Z" fill="#AC3232"/>
<path d="M173.793 68.2759H167.586V74.4828H173.793V68.2759Z" fill="black"/>
<path d="M6.2069 74.4827H0V80.6896H6.2069V74.4827Z" fill="black"/>
<path d="M12.4139 74.4827H6.20703V80.6896H12.4139V74.4827Z" fill="#C75454"/>
<path d="M18.6205 74.4827H12.4136V80.6896H18.6205V74.4827Z" fill="#C75454"/>
<path d="M24.8275 74.4827H18.6206V80.6896H24.8275V74.4827Z" fill="#EE7580"/>
<path d="M31.0345 74.4827H24.8276V80.6896H31.0345V74.4827Z" fill="#EE7580"/>
<path d="M37.2416 74.4827H31.0347V80.6896H37.2416V74.4827Z" fill="#C75454"/>
<path d="M43.4481 74.4827H37.2412V80.6896H43.4481V74.4827Z" fill="#C75454"/>
<path d="M49.6551 74.4827H43.4482V80.6896H49.6551V74.4827Z" fill="#C75454"/>
<path d="M55.8622 74.4827H49.6553V80.6896H55.8622V74.4827Z" fill="#861313"/>
<path d="M62.0692 74.4827H55.8623V80.6896H62.0692V74.4827Z" fill="#C75454"/>
<path d="M68.2757 74.4827H62.0688V80.6896H68.2757V74.4827Z" fill="#C75454"/>
<path d="M74.4828 74.4827H68.2759V80.6896H74.4828V74.4827Z" fill="#C75454"/>
<path d="M80.6898 74.4827H74.4829V80.6896H80.6898V74.4827Z" fill="#C75454"/>
<path d="M86.8963 74.4827H80.6895V80.6896H86.8963V74.4827Z" fill="#C75454"/>
<path d="M93.1034 74.4827H86.8965V80.6896H93.1034V74.4827Z" fill="#C75454"/>
<path d="M99.3104 74.4827H93.1035V80.6896H99.3104V74.4827Z" fill="#C75454"/>
<path d="M105.517 74.4827H99.3105V80.6896H105.517V74.4827Z" fill="#C75454"/>
<path d="M111.724 74.4827H105.517V80.6896H111.724V74.4827Z" fill="#C75454"/>
<path d="M117.931 74.4827H111.724V80.6896H117.931V74.4827Z" fill="#C75454"/>
<path d="M124.138 74.4827H117.931V80.6896H124.138V74.4827Z" fill="#C75454"/>
<path d="M130.345 74.4827H124.138V80.6896H130.345V74.4827Z" fill="#FB808B"/>
<path d="M136.552 74.4827H130.345V80.6896H136.552V74.4827Z" fill="#AC3232"/>
<path d="M142.759 74.4827H136.552V80.6896H142.759V74.4827Z" fill="#AC3232"/>
<path d="M148.966 74.4827H142.759V80.6896H148.966V74.4827Z" fill="#AC3232"/>
<path d="M155.172 74.4827H148.965V80.6896H155.172V74.4827Z" fill="black"/>
<path d="M161.379 74.4827H155.172V80.6896H161.379V74.4827Z" fill="#AC3232"/>
<path d="M167.586 74.4827H161.379V80.6896H167.586V74.4827Z" fill="black"/>
<path d="M6.2069 80.6897H0V86.8966H6.2069V80.6897Z" fill="black"/>
<path d="M12.4139 80.6897H6.20703V86.8966H12.4139V80.6897Z" fill="#C75454"/>
<path d="M18.6205 80.6897H12.4136V86.8966H18.6205V80.6897Z" fill="#C75454"/>
<path d="M24.8275 80.6897H18.6206V86.8966H24.8275V80.6897Z" fill="#EE7580"/>
<path d="M31.0345 80.6897H24.8276V86.8966H31.0345V80.6897Z" fill="#EE7580"/>
<path d="M37.2416 80.6897H31.0347V86.8966H37.2416V80.6897Z" fill="#C75454"/>
<path d="M43.4481 80.6897H37.2412V86.8966H43.4481V80.6897Z" fill="#C75454"/>
<path d="M49.6551 80.6897H43.4482V86.8966H49.6551V80.6897Z" fill="#C75454"/>
<path d="M55.8622 80.6897H49.6553V86.8966H55.8622V80.6897Z" fill="#861313"/>
<path d="M62.0692 80.6897H55.8623V86.8966H62.0692V80.6897Z" fill="#C75454"/>
<path d="M68.2757 80.6897H62.0688V86.8966H68.2757V80.6897Z" fill="#C75454"/>
<path d="M74.4828 80.6897H68.2759V86.8966H74.4828V80.6897Z" fill="#C75454"/>
<path d="M80.6898 80.6897H74.4829V86.8966H80.6898V80.6897Z" fill="#C75454"/>
<path d="M86.8963 80.6897H80.6895V86.8966H86.8963V80.6897Z" fill="#C75454"/>
<path d="M93.1034 80.6897H86.8965V86.8966H93.1034V80.6897Z" fill="#C75454"/>
<path d="M99.3104 80.6897H93.1035V86.8966H99.3104V80.6897Z" fill="#C75454"/>
<path d="M105.517 80.6897H99.3105V86.8966H105.517V80.6897Z" fill="#C75454"/>
<path d="M111.724 80.6897H105.517V86.8966H111.724V80.6897Z" fill="#C75454"/>
<path d="M117.931 80.6897H111.724V86.8966H117.931V80.6897Z" fill="#C75454"/>
<path d="M124.138 80.6897H117.931V86.8966H124.138V80.6897Z" fill="#FB808B"/>
<path d="M130.345 80.6897H124.138V86.8966H130.345V80.6897Z" fill="#AC3232"/>
<path d="M136.552 80.6897H130.345V86.8966H136.552V80.6897Z" fill="#AC3232"/>
<path d="M142.759 80.6897H136.552V86.8966H142.759V80.6897Z" fill="#AC3232"/>
<path d="M148.966 80.6897H142.759V86.8966H148.966V80.6897Z" fill="black"/>
<path d="M155.172 80.6897H148.965V86.8966H155.172V80.6897Z" fill="#AC3232"/>
<path d="M161.379 80.6897H155.172V86.8966H161.379V80.6897Z" fill="#AC3232"/>
<path d="M167.586 80.6897H161.379V86.8966H167.586V80.6897Z" fill="black"/>
<path d="M6.2069 86.8965H0V93.1034H6.2069V86.8965Z" fill="black"/>
<path d="M12.4139 86.8965H6.20703V93.1034H12.4139V86.8965Z" fill="#C75454"/>
<path d="M18.6205 86.8965H12.4136V93.1034H18.6205V86.8965Z" fill="#C75454"/>
<path d="M24.8275 86.8965H18.6206V93.1034H24.8275V86.8965Z" fill="#EE7580"/>
<path d="M31.0345 86.8965H24.8276V93.1034H31.0345V86.8965Z" fill="#EE7580"/>
<path d="M37.2416 86.8965H31.0347V93.1034H37.2416V86.8965Z" fill="#C75454"/>
<path d="M43.4481 86.8965H37.2412V93.1034H43.4481V86.8965Z" fill="#C75454"/>
<path d="M49.6551 86.8965H43.4482V93.1034H49.6551V86.8965Z" fill="#C75454"/>
<path d="M55.8622 86.8965H49.6553V93.1034H55.8622V86.8965Z" fill="#861313"/>
<path d="M62.0692 86.8965H55.8623V93.1034H62.0692V86.8965Z" fill="#C75454"/>
<path d="M68.2757 86.8965H62.0688V93.1034H68.2757V86.8965Z" fill="#C75454"/>
<path d="M74.4828 86.8965H68.2759V93.1034H74.4828V86.8965Z" fill="#C75454"/>
<path d="M80.6898 86.8965H74.4829V93.1034H80.6898V86.8965Z" fill="#C75454"/>
<path d="M86.8963 86.8965H80.6895V93.1034H86.8963V86.8965Z" fill="#C75454"/>
<path d="M93.1034 86.8965H86.8965V93.1034H93.1034V86.8965Z" fill="#C75454"/>
<path d="M99.3104 86.8965H93.1035V93.1034H99.3104V86.8965Z" fill="#C75454"/>
<path d="M105.517 86.8965H99.3105V93.1034H105.517V86.8965Z" fill="#C75454"/>
<path d="M111.724 86.8965H105.517V93.1034H111.724V86.8965Z" fill="#C75454"/>
<path d="M117.931 86.8965H111.724V93.1034H117.931V86.8965Z" fill="#FB808B"/>
<path d="M124.138 86.8965H117.931V93.1034H124.138V86.8965Z" fill="#AC3232"/>
<path d="M130.345 86.8965H124.138V93.1034H130.345V86.8965Z" fill="#AC3232"/>
<path d="M136.552 86.8965H130.345V93.1034H136.552V86.8965Z" fill="black"/>
<path d="M142.759 86.8965H136.552V93.1034H142.759V86.8965Z" fill="black"/>
<path d="M148.966 86.8965H142.759V93.1034H148.966V86.8965Z" fill="#AC3232"/>
<path d="M155.172 86.8965H148.965V93.1034H155.172V86.8965Z" fill="#AC3232"/>
<path d="M161.379 86.8965H155.172V93.1034H161.379V86.8965Z" fill="black"/>
<path d="M6.2069 93.1035H0V99.3104H6.2069V93.1035Z" fill="black"/>
<path d="M12.4139 93.1035H6.20703V99.3104H12.4139V93.1035Z" fill="#C75454"/>
<path d="M18.6205 93.1035H12.4136V99.3104H18.6205V93.1035Z" fill="#C75454"/>
<path d="M24.8275 93.1035H18.6206V99.3104H24.8275V93.1035Z" fill="#EE7580"/>
<path d="M31.0345 93.1035H24.8276V99.3104H31.0345V93.1035Z" fill="#EE7580"/>
<path d="M37.2416 93.1035H31.0347V99.3104H37.2416V93.1035Z" fill="#C75454"/>
<path d="M43.4481 93.1035H37.2412V99.3104H43.4481V93.1035Z" fill="#C75454"/>
<path d="M49.6551 93.1035H43.4482V99.3104H49.6551V93.1035Z" fill="#861313"/>
<path d="M55.8622 93.1035H49.6553V99.3104H55.8622V93.1035Z" fill="#C75454"/>
<path d="M62.0692 93.1035H55.8623V99.3104H62.0692V93.1035Z" fill="#C75454"/>
<path d="M68.2757 93.1035H62.0688V99.3104H68.2757V93.1035Z" fill="#C75454"/>
<path d="M74.4828 93.1035H68.2759V99.3104H74.4828V93.1035Z" fill="#C75454"/>
<path d="M80.6898 93.1035H74.4829V99.3104H80.6898V93.1035Z" fill="#C75454"/>
<path d="M86.8963 93.1035H80.6895V99.3104H86.8963V93.1035Z" fill="#C75454"/>
<path d="M93.1034 93.1035H86.8965V99.3104H93.1034V93.1035Z" fill="#C75454"/>
<path d="M99.3104 93.1035H93.1035V99.3104H99.3104V93.1035Z" fill="#C75454"/>
<path d="M105.517 93.1035H99.3105V99.3104H105.517V93.1035Z" fill="#C75454"/>
<path d="M111.724 93.1035H105.517V99.3104H111.724V93.1035Z" fill="#FB808B"/>
<path d="M117.931 93.1035H111.724V99.3104H117.931V93.1035Z" fill="#AC3232"/>
<path d="M124.138 93.1035H117.931V99.3104H124.138V93.1035Z" fill="#AC3232"/>
<path d="M130.345 93.1035H124.138V99.3104H130.345V93.1035Z" fill="black"/>
<path d="M136.552 93.1035H130.345V99.3104H136.552V93.1035Z" fill="#AC3232"/>
<path d="M142.759 93.1035H136.552V99.3104H142.759V93.1035Z" fill="#AC3232"/>
<path d="M148.966 93.1035H142.759V99.3104H148.966V93.1035Z" fill="#AC3232"/>
<path d="M155.172 93.1035H148.965V99.3104H155.172V93.1035Z" fill="black"/>
<path d="M6.2069 99.3103H0V105.517H6.2069V99.3103Z" fill="black"/>
<path d="M12.4139 99.3103H6.20703V105.517H12.4139V99.3103Z" fill="#C75454"/>
<path d="M18.6205 99.3103H12.4136V105.517H18.6205V99.3103Z" fill="#C75454"/>
<path d="M24.8275 99.3103H18.6206V105.517H24.8275V99.3103Z" fill="#EE7580"/>
<path d="M31.0345 99.3103H24.8276V105.517H31.0345V99.3103Z" fill="#EE7580"/>
<path d="M37.2416 99.3103H31.0347V105.517H37.2416V99.3103Z" fill="#C75454"/>
<path d="M43.4481 99.3103H37.2412V105.517H43.4481V99.3103Z" fill="#C75454"/>
<path d="M49.6551 99.3103H43.4482V105.517H49.6551V99.3103Z" fill="#861313"/>
<path d="M55.8622 99.3103H49.6553V105.517H55.8622V99.3103Z" fill="#C75454"/>
<path d="M62.0692 99.3103H55.8623V105.517H62.0692V99.3103Z" fill="#C75454"/>
<path d="M68.2757 99.3103H62.0688V105.517H68.2757V99.3103Z" fill="#C75454"/>
<path d="M74.4828 99.3103H68.2759V105.517H74.4828V99.3103Z" fill="#C75454"/>
<path d="M80.6898 99.3103H74.4829V105.517H80.6898V99.3103Z" fill="#C75454"/>
<path d="M86.8963 99.3103H80.6895V105.517H86.8963V99.3103Z" fill="#C75454"/>
<path d="M93.1034 99.3103H86.8965V105.517H93.1034V99.3103Z" fill="#C75454"/>
<path d="M99.3104 99.3103H93.1035V105.517H99.3104V99.3103Z" fill="#FB808B"/>
<path d="M105.517 99.3103H99.3105V105.517H105.517V99.3103Z" fill="#AC3232"/>
<path d="M111.724 99.3103H105.517V105.517H111.724V99.3103Z" fill="#AC3232"/>
<path d="M117.931 99.3103H111.724V105.517H117.931V99.3103Z" fill="#AC3232"/>
<path d="M124.138 99.3103H117.931V105.517H124.138V99.3103Z" fill="black"/>
<path d="M130.345 99.3103H124.138V105.517H130.345V99.3103Z" fill="#AC3232"/>
<path d="M136.552 99.3103H130.345V105.517H136.552V99.3103Z" fill="#AC3232"/>
<path d="M142.759 99.3103H136.552V105.517H142.759V99.3103Z" fill="#AC3232"/>
<path d="M148.966 99.3103H142.759V105.517H148.966V99.3103Z" fill="black"/>
<path d="M6.2069 105.517H0V111.724H6.2069V105.517Z" fill="black"/>
<path d="M12.4139 105.517H6.20703V111.724H12.4139V105.517Z" fill="#C75454"/>
<path d="M18.6205 105.517H12.4136V111.724H18.6205V105.517Z" fill="#C75454"/>
<path d="M24.8275 105.517H18.6206V111.724H24.8275V105.517Z" fill="#C75454"/>
<path d="M31.0345 105.517H24.8276V111.724H31.0345V105.517Z" fill="#EE7580"/>
<path d="M37.2416 105.517H31.0347V111.724H37.2416V105.517Z" fill="#C75454"/>
<path d="M43.4481 105.517H37.2412V111.724H43.4481V105.517Z" fill="#C75454"/>
<path d="M49.6551 105.517H43.4482V111.724H49.6551V105.517Z" fill="#C75454"/>
<path d="M55.8622 105.517H49.6553V111.724H55.8622V105.517Z" fill="#C75454"/>
<path d="M62.0692 105.517H55.8623V111.724H62.0692V105.517Z" fill="#C75454"/>
<path d="M68.2757 105.517H62.0688V111.724H68.2757V105.517Z" fill="#C75454"/>
<path d="M74.4828 105.517H68.2759V111.724H74.4828V105.517Z" fill="#C75454"/>
<path d="M80.6898 105.517H74.4829V111.724H80.6898V105.517Z" fill="#C75454"/>
<path d="M86.8963 105.517H80.6895V111.724H86.8963V105.517Z" fill="#FB808B"/>
<path d="M93.1034 105.517H86.8965V111.724H93.1034V105.517Z" fill="#FB808B"/>
<path d="M99.3104 105.517H93.1035V111.724H99.3104V105.517Z" fill="#AC3232"/>
<path d="M105.517 105.517H99.3105V111.724H105.517V105.517Z" fill="#AC3232"/>
<path d="M111.724 105.517H105.517V111.724H111.724V105.517Z" fill="black"/>
<path d="M117.931 105.517H111.724V111.724H117.931V105.517Z" fill="black"/>
<path d="M124.138 105.517H117.931V111.724H124.138V105.517Z" fill="#AC3232"/>
<path d="M130.345 105.517H124.138V111.724H130.345V105.517Z" fill="#AC3232"/>
<path d="M136.552 105.517H130.345V111.724H136.552V105.517Z" fill="#AC3232"/>
<path d="M142.759 105.517H136.552V111.724H142.759V105.517Z" fill="black"/>
<path d="M6.2069 111.724H0V117.931H6.2069V111.724Z" fill="black"/>
<path d="M12.4139 111.724H6.20703V117.931H12.4139V111.724Z" fill="#C75454"/>
<path d="M18.6205 111.724H12.4136V117.931H18.6205V111.724Z" fill="#C75454"/>
<path d="M24.8275 111.724H18.6206V117.931H24.8275V111.724Z" fill="#C75454"/>
<path d="M31.0345 111.724H24.8276V117.931H31.0345V111.724Z" fill="#C75454"/>
<path d="M37.2416 111.724H31.0347V117.931H37.2416V111.724Z" fill="#C75454"/>
<path d="M43.4481 111.724H37.2412V117.931H43.4481V111.724Z" fill="#C75454"/>
<path d="M49.6551 111.724H43.4482V117.931H49.6551V111.724Z" fill="#C75454"/>
<path d="M55.8622 111.724H49.6553V117.931H55.8622V111.724Z" fill="#C75454"/>
<path d="M62.0692 111.724H55.8623V117.931H62.0692V111.724Z" fill="#C75454"/>
<path d="M68.2757 111.724H62.0688V117.931H68.2757V111.724Z" fill="#C75454"/>
<path d="M74.4828 111.724H68.2759V117.931H74.4828V111.724Z" fill="#C75454"/>
<path d="M80.6898 111.724H74.4829V117.931H80.6898V111.724Z" fill="#FB808B"/>
<path d="M86.8963 111.724H80.6895V117.931H86.8963V111.724Z" fill="#AC3232"/>
<path d="M93.1034 111.724H86.8965V117.931H93.1034V111.724Z" fill="#AC3232"/>
<path d="M99.3104 111.724H93.1035V117.931H99.3104V111.724Z" fill="#AC3232"/>
<path d="M105.517 111.724H99.3105V117.931H105.517V111.724Z" fill="black"/>
<path d="M111.724 111.724H105.517V117.931H111.724V111.724Z" fill="#AC3232"/>
<path d="M117.931 111.724H111.724V117.931H117.931V111.724Z" fill="#AC3232"/>
<path d="M124.138 111.724H117.931V117.931H124.138V111.724Z" fill="#AC3232"/>
<path d="M130.345 111.724H124.138V117.931H130.345V111.724Z" fill="black"/>
<path d="M136.552 111.724H130.345V117.931H136.552V111.724Z" fill="black"/>
<path d="M12.4139 117.931H6.20703V124.138H12.4139V117.931Z" fill="black"/>
<path d="M18.6205 117.931H12.4136V124.138H18.6205V117.931Z" fill="#C75454"/>
<path d="M24.8275 117.931H18.6206V124.138H24.8275V117.931Z" fill="#C75454"/>
<path d="M31.0345 117.931H24.8276V124.138H31.0345V117.931Z" fill="#C75454"/>
<path d="M37.2416 117.931H31.0347V124.138H37.2416V117.931Z" fill="#C75454"/>
<path d="M43.4481 117.931H37.2412V124.138H43.4481V117.931Z" fill="#C75454"/>
<path d="M49.6551 117.931H43.4482V124.138H49.6551V117.931Z" fill="#C75454"/>
<path d="M55.8622 117.931H49.6553V124.138H55.8622V117.931Z" fill="#C75454"/>
<path d="M62.0692 117.931H55.8623V124.138H62.0692V117.931Z" fill="#C75454"/>
<path d="M68.2757 117.931H62.0688V124.138H68.2757V117.931Z" fill="#FB808B"/>
<path d="M74.4828 117.931H68.2759V124.138H74.4828V117.931Z" fill="#FB808B"/>
<path d="M80.6898 117.931H74.4829V124.138H80.6898V117.931Z" fill="#AC3232"/>
<path d="M86.8963 117.931H80.6895V124.138H86.8963V117.931Z" fill="#AC3232"/>
<path d="M93.1034 117.931H86.8965V124.138H93.1034V117.931Z" fill="black"/>
<path d="M99.3104 117.931H93.1035V124.138H99.3104V117.931Z" fill="black"/>
<path d="M105.517 117.931H99.3105V124.138H105.517V117.931Z" fill="#AC3232"/>
<path d="M111.724 117.931H105.517V124.138H111.724V117.931Z" fill="black"/>
<path d="M117.931 117.931H111.724V124.138H117.931V117.931Z" fill="black"/>
<path d="M124.138 117.931H117.931V124.138H124.138V117.931Z" fill="black"/>
<path d="M12.4139 124.138H6.20703V130.345H12.4139V124.138Z" fill="black"/>
<path d="M18.6205 124.138H12.4136V130.345H18.6205V124.138Z" fill="#AC3232"/>
<path d="M24.8275 124.138H18.6206V130.345H24.8275V124.138Z" fill="#C75454"/>
<path d="M31.0345 124.138H24.8276V130.345H31.0345V124.138Z" fill="#C75454"/>
<path d="M37.2416 124.138H31.0347V130.345H37.2416V124.138Z" fill="#C75454"/>
<path d="M43.4481 124.138H37.2412V130.345H43.4481V124.138Z" fill="#C75454"/>
<path d="M49.6551 124.138H43.4482V130.345H49.6551V124.138Z" fill="#C75454"/>
<path d="M55.8622 124.138H49.6553V130.345H55.8622V124.138Z" fill="#C75454"/>
<path d="M62.0692 124.138H55.8623V130.345H62.0692V124.138Z" fill="#FB808B"/>
<path d="M68.2757 124.138H62.0688V130.345H68.2757V124.138Z" fill="#AC3232"/>
<path d="M74.4828 124.138H68.2759V130.345H74.4828V124.138Z" fill="#AC3232"/>
<path d="M80.6898 124.138H74.4829V130.345H80.6898V124.138Z" fill="#AC3232"/>
<path d="M86.8963 124.138H80.6895V130.345H86.8963V124.138Z" fill="black"/>
<path d="M93.1034 124.138H86.8965V130.345H93.1034V124.138Z" fill="black"/>
<path d="M99.3104 124.138H93.1035V130.345H99.3104V124.138Z" fill="black"/>
<path d="M105.517 124.138H99.3105V130.345H105.517V124.138Z" fill="black"/>
<path d="M18.6205 130.345H12.4136V136.552H18.6205V130.345Z" fill="black"/>
<path d="M24.8275 130.345H18.6206V136.552H24.8275V130.345Z" fill="#AC3232"/>
<path d="M31.0345 130.345H24.8276V136.552H31.0345V130.345Z" fill="#C75454"/>
<path d="M37.2416 130.345H31.0347V136.552H37.2416V130.345Z" fill="#C75454"/>
<path d="M43.4481 130.345H37.2412V136.552H43.4481V130.345Z" fill="#C75454"/>
<path d="M49.6551 130.345H43.4482V136.552H49.6551V130.345Z" fill="#AC3232"/>
<path d="M55.8622 130.345H49.6553V136.552H55.8622V130.345Z" fill="#AC3232"/>
<path d="M62.0692 130.345H55.8623V136.552H62.0692V130.345Z" fill="#AC3232"/>
<path d="M68.2757 130.345H62.0688V136.552H68.2757V130.345Z" fill="#AC3232"/>
<path d="M74.4828 130.345H68.2759V136.552H74.4828V130.345Z" fill="black"/>
<path d="M80.6898 130.345H74.4829V136.552H80.6898V130.345Z" fill="black"/>
<path d="M24.8275 136.552H18.6206V142.759H24.8275V136.552Z" fill="black"/>
<path d="M31.0345 136.552H24.8276V142.759H31.0345V136.552Z" fill="#AC3232"/>
<path d="M37.2416 136.552H31.0347V142.759H37.2416V136.552Z" fill="#AC3232"/>
<path d="M43.4481 136.552H37.2412V142.759H43.4481V136.552Z" fill="#AC3232"/>
<path d="M49.6551 136.552H43.4482V142.759H49.6551V136.552Z" fill="#AC3232"/>
<path d="M55.8622 136.552H49.6553V142.759H55.8622V136.552Z" fill="black"/>
<path d="M62.0692 136.552H55.8623V142.759H62.0692V136.552Z" fill="black"/>
<path d="M68.2757 136.552H62.0688V142.759H68.2757V136.552Z" fill="black"/>
<path d="M31.0345 142.759H24.8276V148.965H31.0345V142.759Z" fill="black"/>
<path d="M37.2416 142.759H31.0347V148.965H37.2416V142.759Z" fill="black"/>
<path d="M43.4481 142.759H37.2412V148.965H43.4481V142.759Z" fill="black"/>
<path d="M49.6551 142.759H43.4482V148.965H49.6551V142.759Z" fill="black"/>
</g>
<defs>
<clipPath id="clip0_65_640">
<rect width="180" height="148.966" fill="white"/>
</clipPath>
</defs>
</svg>
