<svg width="180" height="106" viewBox="0 0 180 106" fill="none" xmlns="http://www.w3.org/2000/svg">
<g clip-path="url(#clip0_65_1132)">
<path d="M55.8622 0H49.6553V6.2069H55.8622V0Z" fill="black"/>
<path d="M62.0692 0H55.8623V6.2069H62.0692V0Z" fill="black"/>
<path d="M49.6551 6.20703H43.4482V12.4139H49.6551V6.20703Z" fill="black"/>
<path d="M55.8622 6.20703H49.6553V12.4139H55.8622V6.20703Z" fill="#C75454"/>
<path d="M62.0692 6.20703H55.8623V12.4139H62.0692V6.20703Z" fill="#EE7580"/>
<path d="M68.2757 6.20703H62.0688V12.4139H68.2757V6.20703Z" fill="black"/>
<path d="M49.6551 12.4136H43.4482V18.6205H49.6551V12.4136Z" fill="black"/>
<path d="M55.8622 12.4136H49.6553V18.6205H55.8622V12.4136Z" fill="#C75454"/>
<path d="M62.0692 12.4136H55.8623V18.6205H62.0692V12.4136Z" fill="#C75454"/>
<path d="M68.2757 12.4136H62.0688V18.6205H68.2757V12.4136Z" fill="#EE7580"/>
<path d="M74.4828 12.4136H68.2759V18.6205H74.4828V12.4136Z" fill="black"/>
<path d="M80.6898 12.4136H74.4829V18.6205H80.6898V12.4136Z" fill="black"/>
<path d="M86.8963 12.4136H80.6895V18.6205H86.8963V12.4136Z" fill="black"/>
<path d="M93.1034 12.4136H86.8965V18.6205H93.1034V12.4136Z" fill="black"/>
<path d="M99.3104 12.4136H93.1035V18.6205H99.3104V12.4136Z" fill="black"/>
<path d="M105.517 12.4136H99.3105V18.6205H105.517V12.4136Z" fill="black"/>
<path d="M43.4481 18.6206H37.2412V24.8275H43.4481V18.6206Z" fill="black"/>
<path d="M49.6551 18.6206H43.4482V24.8275H49.6551V18.6206Z" fill="#C75454"/>
<path d="M55.8622 18.6206H49.6553V24.8275H55.8622V18.6206Z" fill="#C75454"/>
<path d="M62.0692 18.6206H55.8623V24.8275H62.0692V18.6206Z" fill="#C75454"/>
<path d="M68.2757 18.6206H62.0688V24.8275H68.2757V18.6206Z" fill="#C75454"/>
<path d="M74.4828 18.6206H68.2759V24.8275H74.4828V18.6206Z" fill="#EE7580"/>
<path d="M80.6898 18.6206H74.4829V24.8275H80.6898V18.6206Z" fill="#EE7580"/>
<path d="M86.8963 18.6206H80.6895V24.8275H86.8963V18.6206Z" fill="#C75454"/>
<path d="M93.1034 18.6206H86.8965V24.8275H93.1034V18.6206Z" fill="#C75454"/>
<path d="M99.3104 18.6206H93.1035V24.8275H99.3104V18.6206Z" fill="#C75454"/>
<path d="M105.517 18.6206H99.3105V24.8275H105.517V18.6206Z" fill="#C75454"/>
<path d="M111.724 18.6206H105.517V24.8275H111.724V18.6206Z" fill="black"/>
<path d="M43.4481 24.8276H37.2412V31.0345H43.4481V24.8276Z" fill="black"/>
<path d="M49.6551 24.8276H43.4482V31.0345H49.6551V24.8276Z" fill="#C75454"/>
<path d="M55.8622 24.8276H49.6553V31.0345H55.8622V24.8276Z" fill="#C75454"/>
<path d="M62.0692 24.8276H55.8623V31.0345H62.0692V24.8276Z" fill="#C75454"/>
<path d="M68.2757 24.8276H62.0688V31.0345H68.2757V24.8276Z" fill="#C75454"/>
<path d="M74.4828 24.8276H68.2759V31.0345H74.4828V24.8276Z" fill="#EE7580"/>
<path d="M80.6898 24.8276H74.4829V31.0345H80.6898V24.8276Z" fill="#EE7580"/>
<path d="M86.8963 24.8276H80.6895V31.0345H86.8963V24.8276Z" fill="#C75454"/>
<path d="M93.1034 24.8276H86.8965V31.0345H93.1034V24.8276Z" fill="#C75454"/>
<path d="M99.3104 24.8276H93.1035V31.0345H99.3104V24.8276Z" fill="#C75454"/>
<path d="M105.517 24.8276H99.3105V31.0345H105.517V24.8276Z" fill="#C75454"/>
<path d="M111.724 24.8276H105.517V31.0345H111.724V24.8276Z" fill="#C75454"/>
<path d="M117.931 24.8276H111.724V31.0345H117.931V24.8276Z" fill="black"/>
<path d="M37.2416 31.0347H31.0347V37.2416H37.2416V31.0347Z" fill="black"/>
<path d="M43.4481 31.0347H37.2412V37.2416H43.4481V31.0347Z" fill="#C75454"/>
<path d="M49.6551 31.0347H43.4482V37.2416H49.6551V31.0347Z" fill="#C75454"/>
<path d="M55.8622 31.0347H49.6553V37.2416H55.8622V31.0347Z" fill="#C75454"/>
<path d="M62.0692 31.0347H55.8623V37.2416H62.0692V31.0347Z" fill="#C75454"/>
<path d="M68.2757 31.0347H62.0688V37.2416H68.2757V31.0347Z" fill="#C75454"/>
<path d="M74.4828 31.0347H68.2759V37.2416H74.4828V31.0347Z" fill="#C75454"/>
<path d="M80.6898 31.0347H74.4829V37.2416H80.6898V31.0347Z" fill="#EE7580"/>
<path d="M86.8963 31.0347H80.6895V37.2416H86.8963V31.0347Z" fill="#C75454"/>
<path d="M93.1034 31.0347H86.8965V37.2416H93.1034V31.0347Z" fill="#C75454"/>
<path d="M99.3104 31.0347H93.1035V37.2416H99.3104V31.0347Z" fill="#C75454"/>
<path d="M105.517 31.0347H99.3105V37.2416H105.517V31.0347Z" fill="#C75454"/>
<path d="M111.724 31.0347H105.517V37.2416H111.724V31.0347Z" fill="#C75454"/>
<path d="M117.931 31.0347H111.724V37.2416H117.931V31.0347Z" fill="#C75454"/>
<path d="M124.138 31.0347H117.931V37.2416H124.138V31.0347Z" fill="black"/>
<path d="M37.2416 37.2412H31.0347V43.4481H37.2416V37.2412Z" fill="black"/>
<path d="M43.4481 37.2412H37.2412V43.4481H43.4481V37.2412Z" fill="#C75454"/>
<path d="M49.6551 37.2412H43.4482V43.4481H49.6551V37.2412Z" fill="#AC3232"/>
<path d="M55.8622 37.2412H49.6553V43.4481H55.8622V37.2412Z" fill="#AC3232"/>
<path d="M62.0692 37.2412H55.8623V43.4481H62.0692V37.2412Z" fill="#C75454"/>
<path d="M68.2757 37.2412H62.0688V43.4481H68.2757V37.2412Z" fill="#C75454"/>
<path d="M74.4828 37.2412H68.2759V43.4481H74.4828V37.2412Z" fill="#C75454"/>
<path d="M80.6898 37.2412H74.4829V43.4481H80.6898V37.2412Z" fill="#EE7580"/>
<path d="M86.8963 37.2412H80.6895V43.4481H86.8963V37.2412Z" fill="#C75454"/>
<path d="M93.1034 37.2412H86.8965V43.4481H93.1034V37.2412Z" fill="#C75454"/>
<path d="M99.3104 37.2412H93.1035V43.4481H99.3104V37.2412Z" fill="#C75454"/>
<path d="M105.517 37.2412H99.3105V43.4481H105.517V37.2412Z" fill="#C75454"/>
<path d="M111.724 37.2412H105.517V43.4481H111.724V37.2412Z" fill="#C75454"/>
<path d="M117.931 37.2412H111.724V43.4481H117.931V37.2412Z" fill="#C75454"/>
<path d="M124.138 37.2412H117.931V43.4481H124.138V37.2412Z" fill="#C75454"/>
<path d="M130.345 37.2412H124.138V43.4481H130.345V37.2412Z" fill="black"/>
<path d="M37.2416 43.4482H31.0347V49.6551H37.2416V43.4482Z" fill="black"/>
<path d="M43.4481 43.4482H37.2412V49.6551H43.4481V43.4482Z" fill="#AC3232"/>
<path d="M49.6551 43.4482H43.4482V49.6551H49.6551V43.4482Z" fill="black"/>
<path d="M55.8622 43.4482H49.6553V49.6551H55.8622V43.4482Z" fill="black"/>
<path d="M62.0692 43.4482H55.8623V49.6551H62.0692V43.4482Z" fill="#AC3232"/>
<path d="M68.2757 43.4482H62.0688V49.6551H68.2757V43.4482Z" fill="#C75454"/>
<path d="M74.4828 43.4482H68.2759V49.6551H74.4828V43.4482Z" fill="#C75454"/>
<path d="M80.6898 43.4482H74.4829V49.6551H80.6898V43.4482Z" fill="#C75454"/>
<path d="M86.8963 43.4482H80.6895V49.6551H86.8963V43.4482Z" fill="#C75454"/>
<path d="M93.1034 43.4482H86.8965V49.6551H93.1034V43.4482Z" fill="#C75454"/>
<path d="M99.3104 43.4482H93.1035V49.6551H99.3104V43.4482Z" fill="#C75454"/>
<path d="M105.517 43.4482H99.3105V49.6551H105.517V43.4482Z" fill="#C75454"/>
<path d="M111.724 43.4482H105.517V49.6551H111.724V43.4482Z" fill="#C75454"/>
<path d="M117.931 43.4482H111.724V49.6551H117.931V43.4482Z" fill="#C75454"/>
<path d="M124.138 43.4482H117.931V49.6551H124.138V43.4482Z" fill="#C75454"/>
<path d="M130.345 43.4482H124.138V49.6551H130.345V43.4482Z" fill="black"/>
<path d="M43.4481 49.6553H37.2412V55.8622H43.4481V49.6553Z" fill="black"/>
<path d="M49.6551 49.6553H43.4482V55.8622H49.6551V49.6553Z" fill="#D7D4D8"/>
<path d="M55.8622 49.6553H49.6553V55.8622H55.8622V49.6553Z" fill="#D7D4D8"/>
<path d="M62.0692 49.6553H55.8623V55.8622H62.0692V49.6553Z" fill="black"/>
<path d="M68.2757 49.6553H62.0688V55.8622H68.2757V49.6553Z" fill="#AC3232"/>
<path d="M74.4828 49.6553H68.2759V55.8622H74.4828V49.6553Z" fill="#C75454"/>
<path d="M80.6898 49.6553H74.4829V55.8622H80.6898V49.6553Z" fill="#C75454"/>
<path d="M86.8963 49.6553H80.6895V55.8622H86.8963V49.6553Z" fill="#C75454"/>
<path d="M93.1034 49.6553H86.8965V55.8622H93.1034V49.6553Z" fill="#C75454"/>
<path d="M99.3104 49.6553H93.1035V55.8622H99.3104V49.6553Z" fill="#AC3232"/>
<path d="M105.517 49.6553H99.3105V55.8622H105.517V49.6553Z" fill="#AC3232"/>
<path d="M111.724 49.6553H105.517V55.8622H111.724V49.6553Z" fill="#C75454"/>
<path d="M117.931 49.6553H111.724V55.8622H117.931V49.6553Z" fill="#C75454"/>
<path d="M124.138 49.6553H117.931V55.8622H124.138V49.6553Z" fill="#C75454"/>
<path d="M130.345 49.6553H124.138V55.8622H130.345V49.6553Z" fill="#C75454"/>
<path d="M136.552 49.6553H130.345V55.8622H136.552V49.6553Z" fill="black"/>
<path d="M43.4481 55.8623H37.2412V62.0692H43.4481V55.8623Z" fill="black"/>
<path d="M49.6551 55.8623H43.4482V62.0692H49.6551V55.8623Z" fill="white"/>
<path d="M55.8622 55.8623H49.6553V62.0692H55.8622V55.8623Z" fill="#D7D4D8"/>
<path d="M62.0692 55.8623H55.8623V62.0692H62.0692V55.8623Z" fill="#D7D4D8"/>
<path d="M68.2757 55.8623H62.0688V62.0692H68.2757V55.8623Z" fill="black"/>
<path d="M74.4828 55.8623H68.2759V62.0692H74.4828V55.8623Z" fill="black"/>
<path d="M80.6898 55.8623H74.4829V62.0692H80.6898V55.8623Z" fill="#C75454"/>
<path d="M86.8963 55.8623H80.6895V62.0692H86.8963V55.8623Z" fill="#AC3232"/>
<path d="M93.1034 55.8623H86.8965V62.0692H93.1034V55.8623Z" fill="#AC3232"/>
<path d="M99.3104 55.8623H93.1035V62.0692H99.3104V55.8623Z" fill="#AC3232"/>
<path d="M105.517 55.8623H99.3105V62.0692H105.517V55.8623Z" fill="#AC3232"/>
<path d="M111.724 55.8623H105.517V62.0692H111.724V55.8623Z" fill="#AC3232"/>
<path d="M117.931 55.8623H111.724V62.0692H117.931V55.8623Z" fill="#C75454"/>
<path d="M124.138 55.8623H117.931V62.0692H124.138V55.8623Z" fill="#C75454"/>
<path d="M130.345 55.8623H124.138V62.0692H130.345V55.8623Z" fill="#C75454"/>
<path d="M136.552 55.8623H130.345V62.0692H136.552V55.8623Z" fill="black"/>
<path d="M43.4481 62.0688H37.2412V68.2757H43.4481V62.0688Z" fill="black"/>
<path d="M49.6551 62.0688H43.4482V68.2757H49.6551V62.0688Z" fill="white"/>
<path d="M55.8622 62.0688H49.6553V68.2757H55.8622V62.0688Z" fill="white"/>
<path d="M62.0692 62.0688H55.8623V68.2757H62.0692V62.0688Z" fill="white"/>
<path d="M68.2757 62.0688H62.0688V68.2757H68.2757V62.0688Z" fill="#D7D4D8"/>
<path d="M74.4828 62.0688H68.2759V68.2757H74.4828V62.0688Z" fill="#D7D4D8"/>
<path d="M80.6898 62.0688H74.4829V68.2757H80.6898V62.0688Z" fill="black"/>
<path d="M86.8963 62.0688H80.6895V68.2757H86.8963V62.0688Z" fill="black"/>
<path d="M93.1034 62.0688H86.8965V68.2757H93.1034V62.0688Z" fill="black"/>
<path d="M99.3104 62.0688H93.1035V68.2757H99.3104V62.0688Z" fill="black"/>
<path d="M105.517 62.0688H99.3105V68.2757H105.517V62.0688Z" fill="black"/>
<path d="M111.724 62.0688H105.517V68.2757H111.724V62.0688Z" fill="black"/>
<path d="M117.931 62.0688H111.724V68.2757H117.931V62.0688Z" fill="#AC3232"/>
<path d="M124.138 62.0688H117.931V68.2757H124.138V62.0688Z" fill="#C75454"/>
<path d="M130.345 62.0688H124.138V68.2757H130.345V62.0688Z" fill="#C75454"/>
<path d="M136.552 62.0688H130.345V68.2757H136.552V62.0688Z" fill="#C75454"/>
<path d="M142.759 62.0688H136.552V68.2757H142.759V62.0688Z" fill="black"/>
<path d="M43.4481 68.2759H37.2412V74.4828H43.4481V68.2759Z" fill="black"/>
<path d="M49.6551 68.2759H43.4482V74.4828H49.6551V68.2759Z" fill="white"/>
<path d="M55.8622 68.2759H49.6553V74.4828H55.8622V68.2759Z" fill="white"/>
<path d="M62.0692 68.2759H55.8623V74.4828H62.0692V68.2759Z" fill="white"/>
<path d="M68.2757 68.2759H62.0688V74.4828H68.2757V68.2759Z" fill="white"/>
<path d="M74.4828 68.2759H68.2759V74.4828H74.4828V68.2759Z" fill="white"/>
<path d="M80.6898 68.2759H74.4829V74.4828H80.6898V68.2759Z" fill="#D7D4D8"/>
<path d="M86.8963 68.2759H80.6895V74.4828H86.8963V68.2759Z" fill="#D7D4D8"/>
<path d="M93.1034 68.2759H86.8965V74.4828H93.1034V68.2759Z" fill="#D7D4D8"/>
<path d="M99.3104 68.2759H93.1035V74.4828H99.3104V68.2759Z" fill="#D7D4D8"/>
<path d="M105.517 68.2759H99.3105V74.4828H105.517V68.2759Z" fill="#D7D4D8"/>
<path d="M111.724 68.2759H105.517V74.4828H111.724V68.2759Z" fill="#D7D4D8"/>
<path d="M117.931 68.2759H111.724V74.4828H117.931V68.2759Z" fill="black"/>
<path d="M124.138 68.2759H117.931V74.4828H124.138V68.2759Z" fill="#AC3232"/>
<path d="M130.345 68.2759H124.138V74.4828H130.345V68.2759Z" fill="#C75454"/>
<path d="M136.552 68.2759H130.345V74.4828H136.552V68.2759Z" fill="#C75454"/>
<path d="M142.759 68.2759H136.552V74.4828H142.759V68.2759Z" fill="black"/>
<path d="M49.6551 74.4829H43.4482V80.6898H49.6551V74.4829Z" fill="black"/>
<path d="M55.8622 74.4829H49.6553V80.6898H55.8622V74.4829Z" fill="white"/>
<path d="M62.0692 74.4829H55.8623V80.6898H62.0692V74.4829Z" fill="white"/>
<path d="M68.2757 74.4829H62.0688V80.6898H68.2757V74.4829Z" fill="white"/>
<path d="M74.4828 74.4829H68.2759V80.6898H74.4828V74.4829Z" fill="white"/>
<path d="M80.6898 74.4829H74.4829V80.6898H80.6898V74.4829Z" fill="white"/>
<path d="M86.8963 74.4829H80.6895V80.6898H86.8963V74.4829Z" fill="white"/>
<path d="M93.1034 74.4829H86.8965V80.6898H93.1034V74.4829Z" fill="white"/>
<path d="M99.3104 74.4829H93.1035V80.6898H99.3104V74.4829Z" fill="white"/>
<path d="M105.517 74.4829H99.3105V80.6898H105.517V74.4829Z" fill="white"/>
<path d="M111.724 74.4829H105.517V80.6898H111.724V74.4829Z" fill="#D7D4D8"/>
<path d="M117.931 74.4829H111.724V80.6898H117.931V74.4829Z" fill="#D7D4D8"/>
<path d="M124.138 74.4829H117.931V80.6898H124.138V74.4829Z" fill="black"/>
<path d="M130.345 74.4829H124.138V80.6898H130.345V74.4829Z" fill="#AC3232"/>
<path d="M136.552 74.4829H130.345V80.6898H136.552V74.4829Z" fill="#C75454"/>
<path d="M142.759 74.4829H136.552V80.6898H142.759V74.4829Z" fill="#C75454"/>
<path d="M148.966 74.4829H142.759V80.6898H148.966V74.4829Z" fill="black"/>
<path d="M49.6551 80.6895H43.4482V86.8963H49.6551V80.6895Z" fill="black"/>
<path d="M55.8622 80.6895H49.6553V86.8963H55.8622V80.6895Z" fill="black"/>
<path d="M62.0692 80.6895H55.8623V86.8963H62.0692V80.6895Z" fill="black"/>
<path d="M68.2757 80.6895H62.0688V86.8963H68.2757V80.6895Z" fill="white"/>
<path d="M74.4828 80.6895H68.2759V86.8963H74.4828V80.6895Z" fill="white"/>
<path d="M80.6898 80.6895H74.4829V86.8963H80.6898V80.6895Z" fill="white"/>
<path d="M86.8963 80.6895H80.6895V86.8963H86.8963V80.6895Z" fill="white"/>
<path d="M93.1034 80.6895H86.8965V86.8963H93.1034V80.6895Z" fill="white"/>
<path d="M99.3104 80.6895H93.1035V86.8963H99.3104V80.6895Z" fill="white"/>
<path d="M105.517 80.6895H99.3105V86.8963H105.517V80.6895Z" fill="white"/>
<path d="M111.724 80.6895H105.517V86.8963H111.724V80.6895Z" fill="white"/>
<path d="M117.931 80.6895H111.724V86.8963H117.931V80.6895Z" fill="#D7D4D8"/>
<path d="M124.138 80.6895H117.931V86.8963H124.138V80.6895Z" fill="#D7D4D8"/>
<path d="M130.345 80.6895H124.138V86.8963H130.345V80.6895Z" fill="black"/>
<path d="M136.552 80.6895H130.345V86.8963H136.552V80.6895Z" fill="#AC3232"/>
<path d="M142.759 80.6895H136.552V86.8963H142.759V80.6895Z" fill="#C75454"/>
<path d="M148.966 80.6895H142.759V86.8963H148.966V80.6895Z" fill="black"/>
<path d="M68.2757 86.8965H62.0688V93.1034H68.2757V86.8965Z" fill="black"/>
<path d="M74.4828 86.8965H68.2759V93.1034H74.4828V86.8965Z" fill="black"/>
<path d="M80.6898 86.8965H74.4829V93.1034H80.6898V86.8965Z" fill="black"/>
<path d="M86.8963 86.8965H80.6895V93.1034H86.8963V86.8965Z" fill="black"/>
<path d="M93.1034 86.8965H86.8965V93.1034H93.1034V86.8965Z" fill="black"/>
<path d="M99.3104 86.8965H93.1035V93.1034H99.3104V86.8965Z" fill="white"/>
<path d="M105.517 86.8965H99.3105V93.1034H105.517V86.8965Z" fill="white"/>
<path d="M111.724 86.8965H105.517V93.1034H111.724V86.8965Z" fill="white"/>
<path d="M117.931 86.8965H111.724V93.1034H117.931V86.8965Z" fill="white"/>
<path d="M124.138 86.8965H117.931V93.1034H124.138V86.8965Z" fill="#D7D4D8"/>
<path d="M130.345 86.8965H124.138V93.1034H130.345V86.8965Z" fill="#D7D4D8"/>
<path d="M136.552 86.8965H130.345V93.1034H136.552V86.8965Z" fill="black"/>
<path d="M142.759 86.8965H136.552V93.1034H142.759V86.8965Z" fill="#AC3232"/>
<path d="M148.966 86.8965H142.759V93.1034H148.966V86.8965Z" fill="#C75454"/>
<path d="M155.172 86.8965H148.965V93.1034H155.172V86.8965Z" fill="black"/>
<path d="M99.3104 93.1035H93.1035V99.3104H99.3104V93.1035Z" fill="black"/>
<path d="M105.517 93.1035H99.3105V99.3104H105.517V93.1035Z" fill="black"/>
<path d="M111.724 93.1035H105.517V99.3104H111.724V93.1035Z" fill="black"/>
<path d="M117.931 93.1035H111.724V99.3104H117.931V93.1035Z" fill="black"/>
<path d="M124.138 93.1035H117.931V99.3104H124.138V93.1035Z" fill="black"/>
<path d="M130.345 93.1035H124.138V99.3104H130.345V93.1035Z" fill="black"/>
<path d="M136.552 93.1035H130.345V99.3104H136.552V93.1035Z" fill="black"/>
<path d="M142.759 93.1035H136.552V99.3104H142.759V93.1035Z" fill="#AC3232"/>
<path d="M148.966 93.1035H142.759V99.3104H148.966V93.1035Z" fill="#AC3232"/>
<path d="M155.172 93.1035H148.965V99.3104H155.172V93.1035Z" fill="black"/>
<path d="M142.759 99.3105H136.552V105.517H142.759V99.3105Z" fill="black"/>
<path d="M148.966 99.3105H142.759V105.517H148.966V99.3105Z" fill="black"/>
<path d="M155.172 99.3105H148.965V105.517H155.172V99.3105Z" fill="black"/>
</g>
<defs>
<clipPath id="clip0_65_1132">
<rect width="180" height="105.517" fill="white"/>
</clipPath>
</defs>
</svg>
